<svg width="215" height="35" viewBox="0 0 215 35" fill="none" xmlns="http://www.w3.org/2000/svg">
<g clip-path="url(#clip0)">
<path d="M75.7694 18.033C76.2222 15.0899 79.2726 13.5864 81.8783 12.966C86.4222 12.0751 93.6751 12.3137 96.9321 16.0603C97.4802 16.6649 97.6709 17.3649 97.6232 18.0648H102.175C102.175 17.7944 102.159 17.516 102.112 17.2376C102.056 14.7717 99.9587 13.133 98.1634 11.7967C93.3017 8.90122 85.6834 8.56713 80.2498 9.7444C76.2222 10.7705 71.2969 13.3399 71.146 18.0648H75.7694C75.7694 18.0489 75.7694 18.041 75.7694 18.033Z" fill="white"/>
<path d="M209.911 18.0091C209.459 20.9523 206.408 22.4557 203.803 23.0761C199.259 23.967 193.595 23.7284 190.338 19.9818C189.789 19.3773 189.599 18.6773 189.646 17.9773H185.095C185.095 18.2477 185.11 18.5261 185.158 18.8045C185.214 21.2704 187.311 22.9091 189.106 24.2454C193.968 27.1409 199.997 27.475 205.431 26.2977C209.459 25.2716 214.384 22.7023 214.535 17.9773H209.911C209.904 17.9932 209.904 18.0011 209.911 18.0091Z" fill="white"/>
<path d="M114.996 18.033C115.449 15.0899 118.499 13.5864 121.105 12.966C125.649 12.0751 131.313 12.3137 134.57 16.0603C135.118 16.6649 135.309 17.3649 135.261 18.0648H139.813C139.813 17.7944 139.797 17.516 139.75 17.2376C139.694 14.7717 137.597 13.133 135.801 11.7967C130.94 8.90122 124.91 8.56713 119.477 9.7444C115.449 10.7705 110.524 13.3399 110.373 18.0648H114.996C114.996 18.0489 114.996 18.041 114.996 18.033Z" fill="white"/>
<path d="M102.167 17.8103H97.6311V27.1092H102.167V17.8103Z" fill="white"/>
<path d="M75.682 17.8103H71.146V27.1092H75.682V17.8103Z" fill="white"/>
<path d="M88.9245 22.575H84.3885V27.1091H88.9245V22.575Z" fill="white"/>
<path d="M172.526 10.7228C172.074 13.6659 169.023 15.1694 166.418 15.7898C161.874 16.6807 156.21 16.4421 152.952 12.6955C152.404 12.0909 152.214 11.3909 152.261 10.6909H147.709C147.709 10.9614 147.725 11.2398 147.773 11.5182C147.829 13.9841 149.926 15.6228 151.721 16.9591C156.583 19.8546 162.612 20.1887 168.046 19.0114C172.074 17.9853 176.999 15.4159 177.15 10.6909H172.526C172.526 10.7069 172.526 10.7148 172.526 10.7228Z" fill="white"/>
<path d="M164.702 18.057H160.166V27.1093H164.702V18.057Z" fill="white"/>
<path d="M17.7138 27.1768C15.1341 27.1768 13.0308 26.3476 11.4111 24.6598C9.7915 22.9719 9 20.9318 9 18.5541C9 16.1765 9.7915 14.1364 11.4111 12.4485C13.0308 10.7607 15.1341 9.89474 17.7138 9.89474C20.2936 9.89474 22.3602 10.7533 23.9799 12.4485C25.5995 14.1364 26.4277 16.1765 26.4277 18.5541C26.4277 20.9318 25.5995 22.9719 23.9799 24.6598C22.3602 26.3476 20.2936 27.1768 17.7138 27.1768ZM17.7138 25.7312C19.7439 25.7312 21.4368 25.0414 22.778 23.6984C24.1558 22.3188 24.8447 20.5942 24.8447 18.5615C24.8447 16.5287 24.1558 14.8042 22.778 13.4246C21.4368 12.0449 19.7439 11.3551 17.7138 11.3551C15.6838 11.3551 13.9909 12.0449 12.6131 13.4246C11.2719 14.8042 10.583 16.5287 10.583 18.5615C10.583 20.5942 11.2719 22.3188 12.6131 23.6984C13.9909 25.0414 15.6838 25.7312 17.7138 25.7312Z" fill="white" fill-opacity="0.8"/>
<path d="M22.6704 13.5291L22.6704 13.5291L22.6719 13.5305C24.02 14.8805 24.6947 16.5662 24.6947 18.5615C24.6947 20.5568 24.02 22.2425 22.6719 23.5924C21.3603 24.9057 19.7063 25.5812 17.7138 25.5812C15.7225 25.5812 14.0679 24.9063 12.7192 23.5924C11.4074 22.2423 10.733 20.5563 10.733 18.5615C10.733 16.5663 11.4077 14.8801 12.7199 13.5298C14.0683 12.1799 15.7224 11.5051 17.7138 11.5051C19.706 11.5051 21.3593 12.1804 22.6704 13.5291ZM11.3029 24.7636C12.9544 26.4846 15.0987 27.3268 17.7138 27.3268C20.3297 27.3268 22.4371 26.4842 24.0881 24.7636C25.7346 23.0478 26.5777 20.9705 26.5777 18.5541C26.5777 16.1378 25.7346 14.0605 24.0881 12.3447C22.4379 10.6176 20.331 9.74474 17.7138 9.74474C15.097 9.74474 12.9533 10.6248 11.3029 12.3447C9.65532 14.0617 8.85 16.1395 8.85 18.5541C8.85 20.9688 9.65532 23.0466 11.3029 24.7636Z" stroke="white" stroke-opacity="0.8" stroke-width="0.3"/>
<path d="M46.1274 12.4485C47.6737 14.1364 48.4726 16.1398 48.4726 18.5174C48.4726 20.8951 47.6811 22.9352 46.1274 24.623C44.5737 26.3109 42.5803 27.1768 40.1032 27.1768C37.2083 27.1768 34.9364 26.0761 33.3168 23.8305V33.6567H31.7631V10.313H33.3168V13.2117C34.9364 11.0028 37.1717 9.90207 40.1032 9.90207C42.5803 9.90207 44.581 10.7607 46.1274 12.4485ZM33.3168 15.4206V21.629C34.4161 24.0066 37.0398 25.7312 39.8247 25.7312C41.8547 25.7312 43.511 25.0413 44.8522 23.6617C46.1933 22.2821 46.8822 20.5575 46.8822 18.5248C46.8822 16.492 46.1933 14.7675 44.8522 13.4172C43.511 12.0376 41.8547 11.3477 39.8247 11.3477C36.9665 11.3477 34.3868 13.0356 33.3168 15.4206Z" fill="white" fill-opacity="0.8"/>
<path d="M33.3168 33.8067H33.4668V33.6567V24.2768C35.096 26.3231 37.3218 27.3268 40.1032 27.3268C42.62 27.3268 44.6542 26.445 46.2377 24.7246C47.8176 23.0084 48.6226 20.9318 48.6226 18.5174C48.6226 16.1021 47.8096 14.0626 46.238 12.3472C44.6613 10.6262 42.6194 9.75207 40.1032 9.75207C37.2868 9.75207 35.0924 10.756 33.4668 12.7707V10.313V10.163H33.3168H31.7631H31.6131V10.313V33.6567V33.8067H31.7631H33.3168ZM44.7446 13.5218L44.7458 13.5229C46.0572 14.8432 46.7322 16.5289 46.7322 18.5248C46.7322 20.5203 46.0573 22.2068 44.7446 23.5572C43.4329 24.9065 41.816 25.5812 39.8247 25.5812C37.1097 25.5812 34.5496 23.9048 33.4668 21.5957V15.4529C34.5196 13.1392 37.0349 11.4977 39.8247 11.4977C41.816 11.4977 43.4329 12.1724 44.7446 13.5218L44.7446 13.5218Z" stroke="white" stroke-opacity="0.8" stroke-width="0.3"/>
<path d="M55.258 22.4509V11.7294H51.0586V10.3131H55.258V5H56.8043V10.3131H62.9385V11.7294H56.8043V22.0399C56.8043 24.6965 57.7351 25.7312 59.9044 25.7312C60.8718 25.7312 61.7952 25.489 62.6966 24.9753V26.421C61.9711 26.942 60.9377 27.1769 59.5306 27.1769C56.6651 27.1769 55.258 25.3863 55.258 22.4509Z" fill="white" fill-opacity="0.8"/>
<path d="M56.9543 22.0399V11.8794H62.9385H63.0885V11.7294V10.3131V10.1631H62.9385H56.9543V5V4.85H56.8043H55.258H55.108V5V10.1631H51.0586H50.9086V10.3131V11.7294V11.8794H51.0586H55.108V22.4509C55.108 23.9402 55.4648 25.162 56.2067 26.0132C56.9515 26.8678 58.0653 27.3269 59.5306 27.3269C60.9503 27.3269 62.0212 27.0907 62.7841 26.5428L62.8466 26.498V26.421V24.9753V24.7172L62.6224 24.845C61.7429 25.3462 60.845 25.5812 59.9044 25.5812C58.8412 25.5812 58.1184 25.3278 57.655 24.7844C57.1864 24.2349 56.9543 23.357 56.9543 22.0399Z" stroke="white" stroke-opacity="0.8" stroke-width="0.3"/>
</g>
<defs>
<clipPath id="clip0">
<rect width="214.487" height="35" fill="white"/>
</clipPath>
</defs>
</svg>
